<svg width="396" height="106" xmlns="http://www.w3.org/2000/svg"><g fill-rule="nonzero" fill="none"><path d="M69.645 48.71c.1-3 .275-18.995-16.445-18.9-16.715-.095-16.47 16.025-16.36 19.03-3.095 3.595-5.19 12.295-4.37 12.43 2.015.31 3.39-.725 4.37-1.77.535-.575.595-.425.785.085.17.49 1.78 3.565 2.25 4.28.4.61.275.92-.45 1.06-.74.135-1.76.745-2.45 1.67-1.11 1.515 0 3.015 2.255 3.745 6.525 2.09 11.5.06 11.925-.19.1-.065.925-.32 1.115-.39l.895-.06c.695 0 1.06.13 1.06.13.48.135.75.265 1.275.455.465.16 5.65 2.15 12.02-.09 2.085-.715 3.005-2.06 2.075-3.39a4.485 4.485 0 0 0-2.74-1.93c-.605-.16-.72-.32-.37-.8.485-.67 2-3.69 2.195-4.175.19-.45.38-1.03.8-.425.8 1.14 3.04 2.39 4.46 1.795 1.325-.565-1.74-9.215-4.3-12.56" fill="#1695D4"/><path d="M56.97 86.345C41.175 92.93 20.885 92.895 4.75 73.31c-.1.11-.4.24-.25.605 3.64 8.895 13.76 23.71 33.77 29.22 7.9 2.175 18.35 3.485 31.41-.985a49.9 49.9 0 0 0 12.17-6.265c4.56-3.25 7.415-6.55 8.325-7.535 1.775-1.955 3.095-6.18 1.12-10.275-2.475-5.11-8.695-7.92-15.04-3.52-5.77 3.98-11 8.45-19.285 11.79" fill="#E50012"/><path d="M79.5 31.665c13.565 10.425 23.635 28.045 14.655 51.79.15.025.415.225.66-.085 5.525-6.785 13.725-23.725 8.55-43.835-2.04-7.93-6.11-17.65-16.48-26.76a50.35 50.35 0 0 0-11.48-7.44C70.325 3 66.06 2.155 64.725 1.99c-2.6-.325-6.895.26-9.465 4.02-3.21 4.685-2.55 11.48 4.415 14.795 6.33 3.02 12.8 5.335 19.825 10.86" fill="#1EAA39"/><path d="M21.22 38.735C23.83 21.82 34.45 4.52 59.575.98c-.04-.15.005-.475-.39-.535-8.58-1.28-27.4-.635-42.545 13.58C10.67 19.64 4.1 27.87 1.105 41.345A50.55 50.55 0 0 0 .1 55c.39 5.58 1.72 9.725 2.095 11.025.73 2.53 3.65 5.86 8.18 6.305 5.645.56 11.29-3.275 10.85-10.99-.395-7-1.48-13.78-.01-22.6" fill="#FFD800"/><g fill="#0052D9"><path d="M150.425 21.975l-3.28 12.7h-6.59l3.5-14.515h4.775c1.435 0 1.985.285 1.595 1.815zm-9.19 35.73h-6.5a689.185 689.185 0 0 0 3.84-15.285h6.6l-3.94 15.285zm13.7-45.665h-18.15c-3.83 16.525-8.145 34.485-13.16 52.925a332.695 332.695 0 0 1-9.775 30.475h9.555a404.42 404.42 0 0 0 9.35-29.9h6.5l-7.73 29.9h9.75l19.295-77.865c1.09-4.675-.76-5.535-5.63-5.535h-.005zm28.315 71.935h-32.96l-.82-7.45h36.02l-2.24 7.45z"/><path d="M174.99 49.1a52.59 52.59 0 0 0 7.46-6.97h3.54a27.13 27.13 0 0 0 4 6.975h-15V49.1zm10.545 9.08l-2.02 6.975h-14.33l1.55-5.735-4.275-3.05h17.86c1.34 0 1.595.475 1.215 1.81zm10.385-16.05h14.715l2.335-7.45h-25.7c.77-1.435 1.45-2.96 2.125-4.4h20.92l2.35-7.64H205.6c2.065-3.63 3.955-7.45 5.67-11.46h-10.035a99.335 99.335 0 0 1-5.29 11.46h-3.82c1.225-3.82 1.99-7.93 2.73-13.09h-10.13a73 73 0 0 1-2.82 13.09h-3.25c-.575-4.105-1.09-7.64-1.49-11.46H167.13l1.49 11.46h-6.59l-2.065 7.645h19.11c-.665 1.335-1.35 2.865-2.31 4.39H158.9l-2.05 7.455h14.325c-3.79 3.725-11.685 7.26-16.54 8.41l-2.675 9.55a47.215 47.215 0 0 0 9.38-2.96l-4.05 15.57h32.865c1.335 0 1.585.48 1.21 1.815a258.35 258.35 0 0 1-3.6 13.185H169.23l1.18 7.74h25.89a900.16 900.16 0 0 0 6.29-25.7c.95-4.01-1.3-4.585-4.65-4.585h-4.68l2.91-10.225a32.012 32.012 0 0 0 11.775 5.16l3.07-8.405c-4.975-1.245-12.925-5.065-15.095-9.55v-.005zm34.025 33.245c4.115-2.865 8.86-6.495 13.3-9.835l-3.165 12.415c-7.08 5.4-15.74 11.765-24.86 17.105h-1.08l13.29-52.07h-9.84l2.025-8.405h20.445l-10.115 40.79zm3.11-45.855l-2.13-20.06h9.935l2.61 20.06h-10.415zm67.755-11.18c-5.45 21.88-11.47 46.525-16.905 68.215h11.85l-4.065 8.885h-20.64c4.02-16.53 7.52-31.05 10.7-43.66h-15.29l-10.695 43.66h-10.51l10.7-43.66H242.86l2.195-8.12h12.9l5.055-20.445 8.785 6.88-3.335 13.565h15.285a1104.902 1104.902 0 0 1 5.175-20.635c.65-2.49-.385-2.77-2.58-2.77h-35.255l-1.32-8.41h45.57c5.83 0 6.66 1.72 5.47 6.5l.005-.005zm70.7 60.375l-1.95 9.05h-15.075l2.005 8.71h22.41l16.715-78c.9-4.1.275-5.82-5.63-5.82H318.08l-18.9 83.82h11.145l3.835-17.82.435-1.305 12.445-55.975h55.71c1.14 0 1.4-.025 1.11 1.215l-12.35 56.125z"/><path d="M369.71 77.555c-1.74-7.18-3.66-16.5-4.535-23.415 5.55-8.51 10.05-16 13.5-22.705h-9.315c-1.725 4.02-4.6 10.195-6.995 14.625-1.05-4.7-1.87-11.275-2.21-14.625h-14.45c-2.035 4.02-4.795 10.195-7.365 14.715a186.825 186.825 0 0 1-1.325-14.715h-8.685c.865 6.7 2.145 15.08 3.415 22.615-4.3 7.36-10.325 16.71-15.285 23.355l-1.14 1.635h9.69c2.33-4.02 6.02-10.015 9.205-15.6.58 5.05 1.335 10.905 1.965 15.6h13.21c2.73-4.02 6.225-10.37 9.225-15.865.75 5.14 1.835 11.85 2.655 15.865h8.685l-.25-1.485h.005zm-26.14-4.08c-1.17-6.56-2.355-14.005-2.825-19.325 4.165-6.74 8.15-13.39 11.545-19.415 1.115 6.115 2.46 12.675 3.76 18.705a214.465 214.465 0 0 1-12.48 20.035z"/></g></g></svg>