<svg width="18" height="18" xmlns="http://www.w3.org/2000/svg"><path d="M15.24 8.292C15.276 7.136 15.345.965 8.97 1 2.598.965 2.691 7.184 2.734 8.342 1.554 9.73.755 13.086 1.068 13.14c.768.12 1.292-.28 1.666-.682.203-.223.225-.164.298.032.065.188.68 1.375.857 1.651.153.234.107.354-.172.408-.28.052-.67.288-.932.646-.424.584-.002 1.163.86 1.443 2.488.808 4.383.026 4.546-.072.04-.024.353-.124.424-.149l.341-.024c.265 0 .405.05.405.05.183.052.287.102.486.175.178.063 2.153.828 4.583-.033.794-.277 1.145-.796.791-1.31-.276-.39-.57-.623-1.045-.745-.23-.062-.274-.122-.14-.308.184-.258.763-1.424.836-1.61.073-.174.146-.398.306-.164.302.44 1.158.922 1.7.692.505-.219-.664-3.555-1.639-4.847" fill="#498BF8" fill-rule="evenodd"/></svg>